<svg height="472pt" viewBox="-85 0 472 472.99634" width="472pt" xmlns="http://www.w3.org/2000/svg" xmlns:xlink="http://www.w3.org/1999/xlink"><linearGradient id="a"><stop offset="0" stop-color="#00efd1"/><stop offset="1" stop-color="#00acea"/></linearGradient><linearGradient id="b" gradientUnits="userSpaceOnUse" x1="111.49817" x2="111.49817" xlink:href="#a" y1="-18.793345" y2="467.255655"/><linearGradient id="c" gradientUnits="userSpaceOnUse" x1="151.49817" x2="151.49817" xlink:href="#a" y1="-18.793345" y2="467.255655"/><path d="m66.335938 332.496094h90.328124c4.417969 0 8-3.582032 8-8 0-4.417969-3.582031-8-8-8h-90.328124c-4.421876 0-8 3.582031-8 8 0 4.417968 3.578124 8 8 8zm0 0" fill="url(#b)"/><g fill="url(#c)"><path d="m236.664062 362.496094h-170.328124c-4.421876 0-8 3.582031-8 8 0 4.417968 3.578124 8 8 8h170.328124c4.417969 0 8-3.582032 8-8 0-4.417969-3.582031-8-8-8zm0 0"/><path d="m297.304688.554688c-3.089844-1.199219-6.597657-.386719-8.847657 2.042968l-22.722656 24.738282-22.710937-24.738282c-1.515626-1.652344-3.65625-2.5898435-5.898438-2.5898435s-4.382812.9374995-5.898438 2.5898435l-22.675781 24.730469-22.652343-24.476563c-1.542969-1.589843-3.6875-2.445312-5.898438-2.355468-2.214844-.089844-4.359375.765625-5.902344 2.351562l-22.664062 24.601563-22.660156-24.785157c-1.503907-1.664062-3.644532-2.617187-5.886719-2.6249995-2.246094-.0117187-4.390625.9257815-5.910157 2.5820315l-22.65625 24.714844-22.65625-24.726563c-1.515624-1.65625-3.65625-2.5976562-5.898437-2.5976562-2.246094 0-4.386719.9414062-5.902344 2.5976562l-22.640625 24.714844-22.625-24.714844c-2.257812-2.441406-5.773437-3.261719-8.878906-2.070313-3.101562 1.1875-5.171875 4.148438-5.21875 7.46875v456.976563c.039062 3.316406 2.097656 6.269531 5.191406 7.457031.941406.359375 1.941406.546875 2.949219.546875 2.25 0 4.398437-.941406 5.921875-2.59375l22.710938-24.734375 22.699218 24.734375c1.515625 1.652344 3.65625 2.589844 5.898438 2.589844 2.242187 0 4.378906-.9375 5.898437-2.589844l22.679688-24.726562 22.648437 24.476562c1.542969 1.589844 3.6875 2.445313 5.902344 2.351563 2.210938.09375 4.355469-.761719 5.898438-2.347656l22.664062-24.601563 22.660156 24.785156c1.507813 1.664063 3.644532 2.617188 5.890625 2.628907 2.246094.007812 4.390625-.929688 5.910157-2.582032l22.65625-24.714844 22.660156 24.726563c1.515625 1.652344 3.65625 2.597656 5.898437 2.597656 2.242188 0 4.382813-.945312 5.898438-2.597656l22.644531-24.71875 22.632812 24.714844c2.257813 2.441406 5.769532 3.261719 8.875 2.070312 3.105469-1.1875 5.171876-4.144531 5.222657-7.46875v-456.980469c-.042969-3.316406-2.105469-6.273437-5.207031-7.453124zm-10.804688 443.847656-14.726562-16.140625c-1.519532-1.703125-3.671876-2.703125-5.949219-2.765625h-.027344c-2.265625.0625-4.40625 1.0625-5.910156 2.761718l-22.652344 24.800782-22.660156-24.679688c-1.519531-1.648437-3.664063-2.582031-5.90625-2.574218-2.242188.003906-4.378907.949218-5.890625 2.605468l-22.660156 24.726563-22.65625-24.71875c-1.519532-1.652344-3.660157-2.59375-5.902344-2.59375-2.242188 0-4.382813.941406-5.898438 2.59375l-22.660156 24.726562-22.652344-24.886719c-1.5-1.699218-3.636718-2.699218-5.898437-2.761718-2.265625.0625-4.402344 1.0625-5.902344 2.757812l-22.675781 24.816406-22.703125-24.691406c-1.515625-1.644531-3.65625-2.578125-5.894531-2.570312-2.269532 0-4.4375.941406-5.992188 2.597656l-14.78125 16.03125v-415.839844l14.722656 16.140625c1.519532 1.699219 3.671875 2.699219 5.949219 2.757813h.027344c2.265625-.0625 4.40625-1.058594 5.910156-2.757813l22.652344-24.800781 22.660156 24.679688c1.519531 1.644531 3.664063 2.582031 5.90625 2.574218 2.242187-.003906 4.378906-.949218 5.890625-2.605468l22.660156-24.726563 22.660156 24.71875c1.515626 1.652344 3.65625 2.59375 5.898438 2.59375s4.382812-.941406 5.898438-2.59375l22.664062-24.726563 22.648438 24.886719c1.5 1.695313 3.636718 2.695313 5.898437 2.757813 2.265625-.058594 4.402344-1.058594 5.902344-2.757813l22.679687-24.8125 22.699219 24.691407c1.515625 1.644531 3.65625 2.578124 5.894531 2.570312 2.269532-.003906 4.4375-.941406 5.992188-2.601562l14.785156-16.027344zm0 0"/><path d="m214.699219 160.640625c-3.574219-28.835937-26.375-51.5-55.230469-54.90625-28.851562-3.402344-56.300781 13.335937-66.488281 40.546875-25.835938 5.539062-44.28125 28.382812-44.257813 54.804688v.203124.109376c.035156 25.480468 20.703125 46.109374 46.179688 46.097656h113.191406c25.476562.015625 46.148438-20.613282 46.183594-46.09375.003906-.445313-.039063-.886719-.117188-1.324219-.714844-21.488281-17.972656-38.738281-39.460937-39.4375zm-6.605469 70.855469h-113.191406c-16.539063.023437-30.007813-13.28125-30.183594-29.820313.003906-.035156.003906-.066406 0-.101562 0-.109375 0-.074219-.007812-.074219-.273438-20.40625 14.980468-37.695312 35.265624-39.964844 3.230469-.417968 5.894532-2.726562 6.769532-5.863281 6.382812-22.625 28.472656-37.074219 51.761718-33.863281 23.285157 3.214844 40.636719 23.109375 40.652344 46.617187v.484375c-.058594 2.429688.992188 4.753906 2.851563 6.316406s4.328125 2.195313 6.710937 1.722657c1.5625-.253907 3.140625-.363281 4.722656-.320313 13.691407.050782 24.757813 11.175782 24.738282 24.867188 0 .34375.023437.683594.074218 1.023437-.625 16.199219-13.953124 29.003907-30.164062 28.976563zm0 0"/></g></svg>